<svg width="26" height="29" viewBox="0 0 26 29" fill="none" xmlns="http://www.w3.org/2000/svg">
<path d="M12.7938 12.8115C8.78249 12.8115 7.96962 6.73265 7.96962 6.73265C7.49251 3.56954 8.94153 0 12.7408 0C16.5577 0 18.0068 3.56954 17.5296 6.73265C17.5296 6.73265 16.8051 12.8115 12.7938 12.8115ZM12.7938 17.3529L17.6003 14.1368C21.8237 14.1368 25.5876 18.2541 25.5876 22.1418V26.5419C25.5876 26.5419 19.1377 28.5387 12.7938 28.5387C6.34389 28.5387 0 26.5419 0 26.5419V22.1418C0 18.1658 3.42818 14.2252 7.89894 14.2252L12.7938 17.3529Z" fill="#757575"/>
</svg>
