<svg width="36" height="30" viewBox="0 0 36 30" fill="none" xmlns="http://www.w3.org/2000/svg">
<path id="Vector" d="M32.7273 0H2.72727C2.00395 0 1.31026 0.287337 0.7988 0.7988C0.287337 1.31026 0 2.00396 0 2.72727V27.2727C0 27.996 0.287337 28.6897 0.7988 29.2012C1.31026 29.7127 2.00395 30 2.72727 30H32.7273C33.4506 30 34.1443 29.7127 34.6557 29.2012C35.1672 28.6897 35.4545 27.996 35.4545 27.2727V2.72727C35.4545 2.00396 35.1672 1.31026 34.6557 0.7988C34.1443 0.287337 33.4506 0 32.7273 0ZM22.5 8.18182C22.9046 8.18182 23.3 8.30178 23.6364 8.52654C23.9728 8.7513 24.2349 9.07075 24.3898 9.44451C24.5446 9.81827 24.5851 10.2295 24.5061 10.6263C24.4272 11.0231 24.2324 11.3876 23.9464 11.6736C23.6603 11.9597 23.2958 12.1545 22.899 12.2334C22.5023 12.3123 22.091 12.2718 21.7172 12.117C21.3435 11.9622 21.024 11.7 20.7993 11.3637C20.5745 11.0273 20.4545 10.6318 20.4545 10.2273C20.4545 9.68478 20.67 9.16451 21.0536 8.78092C21.4372 8.39732 21.9575 8.18182 22.5 8.18182ZM2.72727 27.2727V22.5L11.5909 13.6364L25.2273 27.2727H2.72727ZM32.7273 27.2727H29.0847L22.9483 21.1364L26.3574 17.7273L32.7273 24.0989V27.2727Z" fill="#757575"/>
</svg>
