<svg width="29" height="28" viewBox="0 0 29 28" fill="none" xmlns="http://www.w3.org/2000/svg">
<path d="M28.0581 1.16667V7C28.0581 7.30942 27.935 7.60616 27.7157 7.82496C27.4965 8.04375 27.1991 8.16667 26.889 8.16667C26.579 8.16667 26.2816 8.04375 26.0624 7.82496C25.8431 7.60616 25.72 7.30942 25.72 7V2.33333H21.0436C20.7335 2.33333 20.4362 2.21042 20.2169 1.99162C19.9977 1.77283 19.8745 1.47609 19.8745 1.16667C19.8745 0.857247 19.9977 0.560501 20.2169 0.341709C20.4362 0.122917 20.7335 0 21.0436 0H26.889C27.1991 0 27.4965 0.122917 27.7157 0.341709C27.935 0.560501 28.0581 0.857247 28.0581 1.16667ZM7.01453 25.6667H2.33818V21C2.33818 20.6906 2.21501 20.3938 1.99576 20.175C1.77651 19.9562 1.47915 19.8333 1.16909 19.8333C0.859027 19.8333 0.561665 19.9562 0.342418 20.175C0.123172 20.3938 0 20.6906 0 21V26.8333C0 27.1428 0.123172 27.4395 0.342418 27.6583C0.561665 27.8771 0.859027 28 1.16909 28H7.01453C7.32459 28 7.62196 27.8771 7.8412 27.6583C8.06045 27.4395 8.18362 27.1428 8.18362 26.8333C8.18362 26.5239 8.06045 26.2272 7.8412 26.0084C7.62196 25.7896 7.32459 25.6667 7.01453 25.6667ZM26.889 19.8333C26.579 19.8333 26.2816 19.9562 26.0624 20.175C25.8431 20.3938 25.72 20.6906 25.72 21V25.6667H21.0436C20.7335 25.6667 20.4362 25.7896 20.2169 26.0084C19.9977 26.2272 19.8745 26.5239 19.8745 26.8333C19.8745 27.1428 19.9977 27.4395 20.2169 27.6583C20.4362 27.8771 20.7335 28 21.0436 28H26.889C27.1991 28 27.4965 27.8771 27.7157 27.6583C27.935 27.4395 28.0581 27.1428 28.0581 26.8333V21C28.0581 20.6906 27.935 20.3938 27.7157 20.175C27.4965 19.9562 27.1991 19.8333 26.889 19.8333ZM1.16909 8.16667C1.47915 8.16667 1.77651 8.04375 1.99576 7.82496C2.21501 7.60616 2.33818 7.30942 2.33818 7V2.33333H7.01453C7.32459 2.33333 7.62196 2.21042 7.8412 1.99162C8.06045 1.77283 8.18362 1.47609 8.18362 1.16667C8.18362 0.857247 8.06045 0.560501 7.8412 0.341709C7.62196 0.122917 7.32459 0 7.01453 0H1.16909C0.859027 0 0.561665 0.122917 0.342418 0.341709C0.123172 0.560501 0 0.857247 0 1.16667V7C0 7.30942 0.123172 7.60616 0.342418 7.82496C0.561665 8.04375 0.859027 8.16667 1.16909 8.16667ZM22.2127 19.8333V8.16667C22.2127 7.54783 21.9663 6.95434 21.5278 6.51675C21.0894 6.07917 20.4946 5.83333 19.8745 5.83333H8.18362C7.5635 5.83333 6.96877 6.07917 6.53028 6.51675C6.09179 6.95434 5.84544 7.54783 5.84544 8.16667V19.8333C5.84544 20.4522 6.09179 21.0457 6.53028 21.4832C6.96877 21.9208 7.5635 22.1667 8.18362 22.1667H19.8745C20.4946 22.1667 21.0894 21.9208 21.5278 21.4832C21.9663 21.0457 22.2127 20.4522 22.2127 19.8333Z" fill="#757575"/>
</svg>
