<svg width="92" height="86" viewBox="0 0 92 86" fill="#000" xmlns="http://www.w3.org/2000/svg">
<path d="M90.13 73.1404L53.1337 4.52077C52.3973 3.15321 51.3083 2.01135 49.9816 1.21567C48.6549 0.419995 47.1398 0 45.596 0C44.0522 0 42.537 0.419995 41.2104 1.21567C39.8837 2.01135 38.7947 3.15321 38.0582 4.52077L1.08862 73.1404C0.357543 74.4598 -0.0175872 75.9493 0.000633476 77.4605C0.0188542 78.9716 0.429789 80.4515 1.19246 81.7527C1.95513 83.0538 3.04289 84.1306 4.34726 84.8759C5.65164 85.6211 7.12705 86.0086 8.62637 85.9999H82.5922C84.0763 85.9983 85.5346 85.6087 86.8245 84.869C88.1144 84.1293 89.1918 83.0649 89.9514 81.7799C90.711 80.4948 91.1268 79.0331 91.1581 77.5376C91.1894 76.0421 90.8351 74.564 90.13 73.2478V73.1404ZM42.1867 21.5683C42.1867 20.5715 42.5795 19.6155 43.2789 18.9106C43.9782 18.2058 44.9266 17.8098 45.9156 17.8098C46.9046 17.8098 47.853 18.2058 48.5524 18.9106C49.2517 19.6155 49.6445 20.5715 49.6445 21.5683V53.7841C49.6445 54.7809 49.2517 55.7369 48.5524 56.4417C47.853 57.1466 46.9046 57.5426 45.9156 57.5426C44.9266 57.5426 43.9782 57.1466 43.2789 56.4417C42.5795 55.7369 42.1867 54.7809 42.1867 53.7841V21.5683ZM45.9156 74.8586C44.9674 74.8586 44.0404 74.5751 43.252 74.0442C42.4636 73.5132 41.8491 72.7585 41.4862 71.8755C41.1233 70.9925 41.0284 70.0208 41.2134 69.0834C41.3984 68.1461 41.855 67.285 42.5255 66.6092C43.196 65.9334 44.0503 65.4731 44.9803 65.2867C45.9103 65.1002 46.8743 65.1959 47.7503 65.5617C48.6264 65.9274 49.3751 66.5468 49.9019 67.3415C50.4287 68.1362 50.7099 69.0704 50.7099 70.0262C50.7099 70.6608 50.5859 71.2892 50.345 71.8755C50.104 72.4618 49.7509 72.9945 49.3057 73.4432C48.8605 73.8919 48.332 74.2479 47.7503 74.4907C47.1686 74.7336 46.5452 74.8586 45.9156 74.8586Z" fill="#000"/>
</svg>
