<svg width="22" height="22" viewBox="0 0 22 22" fill="none" xmlns="http://www.w3.org/2000/svg">
<path d="M6.27 15.73C6.47167 15.9317 6.72833 16.0325 7.04 16.0325C7.35167 16.0325 7.60833 15.9317 7.81 15.73L11 12.54L14.2175 15.7575C14.4192 15.9592 14.6714 16.0552 14.9743 16.0457C15.2764 16.0369 15.5283 15.9317 15.73 15.73C15.9317 15.5283 16.0325 15.2717 16.0325 14.96C16.0325 14.6483 15.9317 14.3917 15.73 14.19L12.54 11L15.7575 7.7825C15.9592 7.58083 16.0552 7.32857 16.0457 7.0257C16.0369 6.72357 15.9317 6.47167 15.73 6.27C15.5283 6.06833 15.2717 5.9675 14.96 5.9675C14.6483 5.9675 14.3917 6.06833 14.19 6.27L11 9.46L7.7825 6.2425C7.58083 6.04083 7.32893 5.9444 7.0268 5.9532C6.72393 5.96273 6.47167 6.06833 6.27 6.27C6.06833 6.47167 5.9675 6.72833 5.9675 7.04C5.9675 7.35167 6.06833 7.60833 6.27 7.81L9.46 11L6.2425 14.2175C6.04083 14.4192 5.94477 14.6711 5.9543 14.9732C5.9631 15.2761 6.06833 15.5283 6.27 15.73ZM11 22C9.47833 22 8.04833 21.7111 6.71 21.1332C5.37167 20.5561 4.2075 19.7725 3.2175 18.7825C2.2275 17.7925 1.44393 16.6283 0.8668 15.29C0.288933 13.9517 0 12.5217 0 11C0 9.47833 0.288933 8.04833 0.8668 6.71C1.44393 5.37167 2.2275 4.2075 3.2175 3.2175C4.2075 2.2275 5.37167 1.44357 6.71 0.8657C8.04833 0.288567 9.47833 0 11 0C12.5217 0 13.9517 0.288567 15.29 0.8657C16.6283 1.44357 17.7925 2.2275 18.7825 3.2175C19.7725 4.2075 20.5561 5.37167 21.1332 6.71C21.7111 8.04833 22 9.47833 22 11C22 12.5217 21.7111 13.9517 21.1332 15.29C20.5561 16.6283 19.7725 17.7925 18.7825 18.7825C17.7925 19.7725 16.6283 20.5561 15.29 21.1332C13.9517 21.7111 12.5217 22 11 22Z" fill="#004889"/>
</svg>
