<svg width="27" height="27" viewBox="0 0 27 27" fill="none" xmlns="http://www.w3.org/2000/svg">
<path d="M26.26 18.382V2.626C26.26 1.92954 25.9833 1.26161 25.4909 0.769137C24.9984 0.276667 24.3305 0 23.634 0H7.878C7.18154 0 6.51361 0.276667 6.02114 0.769137C5.52867 1.26161 5.252 1.92954 5.252 2.626V18.382C5.252 19.0785 5.52867 19.7464 6.02114 20.2389C6.51361 20.7313 7.18154 21.008 7.878 21.008H23.634C24.3305 21.008 24.9984 20.7313 25.4909 20.2389C25.9833 19.7464 26.26 19.0785 26.26 18.382ZM11.817 13.13L14.4824 16.6882L18.382 11.817L23.634 18.382H7.878M0 5.252V23.634C0 24.3305 0.276667 24.9984 0.769137 25.4909C1.26161 25.9833 1.92954 26.26 2.626 26.26H21.008V23.634H2.626V5.252" fill="#757575"/>
</svg>
