<svg width="86" height="86" viewBox="0 0 86 86" fill="#000" xmlns="http://www.w3.org/2000/svg">
<path d="M43 0C54.4043 0 65.3415 4.53034 73.4056 12.5944C81.4697 20.6585 86 31.5957 86 43C86 54.4043 81.4697 65.3415 73.4056 73.4056C65.3415 81.4697 54.4043 86 43 86C31.5957 86 20.6585 81.4697 12.5944 73.4056C4.53034 65.3415 0 54.4043 0 43C0 31.5957 4.53034 20.6585 12.5944 12.5944C20.6585 4.53034 31.5957 0 43 0ZM37.6434 51.4833L28.0913 41.925C27.7488 41.5826 27.3423 41.3109 26.8949 41.1256C26.4475 40.9403 25.9679 40.8449 25.4836 40.8449C24.9994 40.8449 24.5198 40.9403 24.0724 41.1256C23.625 41.3109 23.2184 41.5826 22.876 41.925C22.1844 42.6166 21.7959 43.5546 21.7959 44.5326C21.7959 45.5107 22.1844 46.4487 22.876 47.1403L35.0389 59.3031C35.3803 59.6473 35.7866 59.9205 36.2341 60.1069C36.6817 60.2933 37.1617 60.3892 37.6465 60.3892C38.1313 60.3892 38.6113 60.2933 39.0589 60.1069C39.5064 59.9205 39.9127 59.6473 40.2541 59.3031L65.4399 34.1113C65.7869 33.7703 66.0629 33.3639 66.2521 32.9157C66.4413 32.4674 66.5399 31.9862 66.5421 31.4996C66.5444 31.0131 66.4503 30.5309 66.2653 30.081C66.0803 29.631 65.808 29.2221 65.4642 28.8778C65.1204 28.5336 64.7118 28.2608 64.262 28.0753C63.8123 27.8898 63.3302 27.7951 62.8437 27.7968C62.3571 27.7985 61.8758 27.8965 61.4273 28.0851C60.9788 28.2738 60.5721 28.5494 60.2307 28.896L37.6434 51.4833Z" fill="#000"/>
</svg>
