<svg width="57" height="57" viewBox="0 0 57 57" fill="none" xmlns="http://www.w3.org/2000/svg">
<path d="M46.1301 32.5656C45.4104 32.5656 44.7202 32.8517 44.2114 33.3608C43.7025 33.87 43.4166 34.5605 43.4166 35.2806V36.3122L39.4006 32.2941C37.9825 30.8866 36.066 30.0967 34.0685 30.0967C32.0709 30.0967 30.1544 30.8866 28.7364 32.2941L26.8369 34.1946L20.1073 27.4616C18.6695 26.0922 16.7603 25.3284 14.7752 25.3284C12.7901 25.3284 10.881 26.0922 9.44311 27.4616L5.42707 31.4797V16.276C5.42707 15.556 5.71296 14.8654 6.22185 14.3563C6.73074 13.8471 7.42093 13.5611 8.14061 13.5611H27.1354C27.855 13.5611 28.5452 13.2751 29.0541 12.7659C29.563 12.2568 29.8489 11.5662 29.8489 10.8462C29.8489 10.1261 29.563 9.43559 29.0541 8.92644C28.5452 8.41729 27.855 8.13125 27.1354 8.13125H8.14061C5.98159 8.13125 3.91099 8.98936 2.38433 10.5168C0.857669 12.0443 0 14.1159 0 16.276V48.8552C0 51.0153 0.857669 53.087 2.38433 54.6144C3.91099 56.1419 5.98159 57 8.14061 57H40.703C42.8621 57 44.9327 56.1419 46.4593 54.6144C47.986 53.087 48.8437 51.0153 48.8437 48.8552V35.2806C48.8437 34.5605 48.5578 33.87 48.0489 33.3608C47.54 32.8517 46.8498 32.5656 46.1301 32.5656ZM8.14061 51.5701C7.42093 51.5701 6.73074 51.2841 6.22185 50.775C5.71296 50.2658 5.42707 49.5753 5.42707 48.8552V39.1629L13.2963 31.2896C13.695 30.9095 14.2245 30.6975 14.7752 30.6975C15.3259 30.6975 15.8554 30.9095 16.2541 31.2896L24.856 39.8959L36.5242 51.5701H8.14061ZM43.4166 48.8552C43.4127 49.3749 43.2414 49.8795 42.9281 50.2941L30.6901 37.9955L32.5896 36.095C32.7841 35.8964 33.0163 35.7386 33.2726 35.6308C33.5289 35.5231 33.804 35.4676 34.082 35.4676C34.36 35.4676 34.6352 35.5231 34.8914 35.6308C35.1477 35.7386 35.3799 35.8964 35.5745 36.095L43.4166 43.9955V48.8552ZM56.1973 8.91858L48.0567 0.773792C47.7987 0.526623 47.4944 0.332872 47.1613 0.203656C46.5006 -0.0678855 45.7596 -0.0678855 45.099 0.203656C44.7659 0.332872 44.4616 0.526623 44.2035 0.773792L36.0629 8.91858C35.5519 9.42981 35.2649 10.1232 35.2649 10.8462C35.2649 11.5692 35.5519 12.2626 36.0629 12.7738C36.5739 13.285 37.2669 13.5722 37.9895 13.5722C38.7121 13.5722 39.4052 13.285 39.9161 12.7738L43.4166 9.24437V24.4208C43.4166 25.1409 43.7025 25.8314 44.2114 26.3406C44.7202 26.8497 45.4104 27.1358 46.1301 27.1358C46.8498 27.1358 47.54 26.8497 48.0489 26.3406C48.5578 25.8314 48.8437 25.1409 48.8437 24.4208V9.24437L52.3441 12.7738C52.5964 13.0282 52.8965 13.2302 53.2272 13.3681C53.5578 13.5059 53.9125 13.5769 54.2707 13.5769C54.6289 13.5769 54.9836 13.5059 55.3143 13.3681C55.645 13.2302 55.9451 13.0282 56.1973 12.7738C56.4517 12.5214 56.6535 12.2211 56.7913 11.8903C56.9291 11.5594 57 11.2046 57 10.8462C57 10.4878 56.9291 10.1329 56.7913 9.80208C56.6535 9.47124 56.4517 9.17097 56.1973 8.91858Z" fill="#004889"/>
</svg>
